<svg version="1.0" xmlns="http://www.w3.org/2000/svg" width="1450.667" height="1450.667" viewBox="0 0 1088 1088"><path d="m140.8 16.8-12.8.3V441l3.8.1c27.9.4 371.9-.1 377.7-.6 17.1-1.5 21.6-2.3 35.5-6 5.2-1.4 10.2-2.7 11-2.9.8-.2 2.9-1 4.5-1.6 1.7-.6 3.7-1.3 4.5-1.5 5.1-1.1 31.9-13.8 37.4-17.8.6-.4 4.3-2.8 8.1-5.4 17.4-11.6 36.1-28.7 47.2-43 1.2-1.5 3.5-4.6 5.2-6.8 1.7-2.2 3.5-4.5 4.1-5.2.6-.7 1.5-2.4 2.2-3.8.6-1.4 1.5-2.5 2-2.5.4 0 .8-.4.8-.9s1.8-3.8 3.9-7.3c3.9-6.4 11.8-22.4 12.3-25 .2-.7.6-1.5.9-1.8 1.1-.9 8.2-23 9.9-30.5.4-2.2 1.1-5 1.3-6.1 4.5-18.8 5.5-56.6 2.1-74.9-.3-1.7-.7-4.4-.9-6.1-.2-1.7-1.1-5.8-2-9-.9-3.3-1.8-7.3-2-8.9-.4-2.8-1.4-5.9-3.5-11-.5-1.1-1.5-4-2.3-6.5-4.1-12.6-21.4-46-23.9-46-.4 0-.8-.5-.8-1.1 0-1.1-10.5-15-15.1-20-1.3-1.4-4-4.3-5.9-6.5-3.1-3.4-15.7-14.9-23.1-20.9-4.9-4.1-21.6-14.9-28.4-18.5-3.8-2-7.9-4.1-9-4.7-2.1-1.1-8.6-4.1-14.5-6.6-8.4-3.5-30.4-9.9-38.5-11.1-2.2-.4-6.7-1.1-10-1.6-3.3-.6-10.7-1.3-16.5-1.6-10.6-.6-341.4-1.1-365.2-.6zm-5.9 494.7c-.3.2-1.9.5-3.7.7l-3.2.2v282.8c0 187.4.3 282.9 1 283.3.6.3 1 .3 1-.2 0-.9 45.5-.7 47 .2.5.3 1 .3 1-.2 0-.9 21.4-.8 23 .2.5.3 1 .3 1-.2 0-.9 13.4-.8 15 .2.5.3 1 .3 1-.2 0-.9 13.4-.8 15 .2.5.3 1 .3 1-.2 0-.9 13.4-.8 15 .2.5.3 1 .3 1-.2 0-.9 21.4-.8 23 .2.5.3 1 .3 1-.2 0-.9 45.5-.7 47 .2.5.3 1 .3 1-.2 0-.9 45.5-.7 47 .2.5.3 1 .3 1-.2 0-.9 21.4-.8 23 .2.5.3 1 .3 1-.2 0-.9 13.4-.8 15 .2.5.3 1 .3 1-.2 0-.9 13.4-.8 15 .2.5.3 1 .3 1-.2 0-.9 13.4-.8 15 .2.5.3 1 .3 1-.2 0-.9 21.4-.8 23 .2.5.3 1 .3 1-.2 0-.9 45.5-.7 47 .2.5.3 1 .3 1-.2 0-.9 45.5-.7 47 .2.5.3 1 .3 1-.2 0-.9 21.4-.8 23 .2.5.3 1 .3 1-.2 0-.9 13.4-.8 15 .2.5.3 1 .3 1-.2 0-.9 13.4-.8 15 .2.5.3 1 .3 1-.2 0-.9 13.4-.8 15 .2.5.3 1 .3 1-.2 0-.9 21.4-.8 23 .2.5.3 1 .3 1-.2 0-.4 8.4-.9 18.8-.9 17.6-.2 27.4-.7 33.2-1.8 1.4-.2 4.8-.7 7.5-1.1 2.8-.3 5.9-.8 7-1 2-.5 5.1-1.1 10.8-2.1 1.6-.3 7.7-1.9 13.5-3.6 5.9-1.6 11.2-3.1 11.7-3.2.6-.2 1.7-.6 2.5-.9.8-.3 3.8-1.3 6.5-2.3 2.8-1 5.6-2.2 6.2-2.7.7-.5 1.3-.7 1.3-.4 0 1.3 29.3-12.7 38.9-18.4 3.4-2.2 6.6-3.9 7-3.9.4 0 1.6-.8 2.7-1.7 1.1-1 5.8-4.4 10.4-7.5 9.1-6.1 11.3-7.8 23-17.7 11.3-9.7 34-33.2 34-35.2 0-.4.6-1.2 1.3-1.6 1.6-1 13.7-17.5 16.8-22.8 1.3-2.2 2.6-4.2 2.9-4.5 1-.9 5.2-8.2 11.6-20.5 7.1-13.7 14.9-32.8 18.8-46 1.5-5 3.1-10.4 3.6-12 .9-3 1.9-7.2 2.5-11 .2-1.1.4-2 .5-2 .2 0 .8-3.1 1.4-7 .3-1.7.7-4.1 1-5.5.3-1.4.9-5.2 1.2-8.5.3-3.3.9-7.7 1.4-9.8.4-2 .4-3.7-.1-3.7s-.4-1.1.1-2.4c.9-2.6.7-41-.3-50.8-.8-7.2-1.5-12.5-2.2-16.1-.3-1.5-.7-3.9-1-5.5-.3-1.5-.8-4.3-1.1-6.2-.3-1.9-.8-3.8-1-4.1-.2-.3-.6-1.9-.8-3.5-1-5.1-1.4-6.7-4.5-16.9-2.6-8.7-4.5-14.1-8.9-25.5-.5-1.4-1-2.8-1.1-3.2-.7-3-18.2-36.1-19.3-36.6-.5-.2-.8-.8-.8-1.4 0-.6-2-3.9-4.5-7.5-2.5-3.5-4.5-6.8-4.5-7.3 0-.4-.3-1-.7-1.2-.5-.2-3.2-3.5-6.1-7.3-3-3.9-7.2-9.2-9.5-12-5.5-6.4-27.1-28-32.7-32.5-2.4-1.9-4.8-4-5.4-4.5-1.4-1.3-9.8-7.6-12.6-9.5-1.2-.8-2.8-2.1-3.6-2.8-.7-.6-1.7-1.2-2.2-1.2-.5 0-1.7-.9-2.7-2-1-1.1-2.2-2-2.6-2-.5 0-3.2-1.5-6.1-3.4-2.9-1.8-8.3-4.9-12-6.9-3.7-2-7.5-4.1-8.5-4.6-3.5-1.9-18.8-8.8-21.3-9.6-.3-.1-1.6-.6-3-1.2-3.1-1.4-12.2-4.6-13.5-4.9-.5-.1-3-.9-5.5-1.7-7.6-2.6-19.1-5.5-28.5-7.2-4.9-1-9.9-1.9-11-2.1-2.1-.4-7.4-1.1-18-2.1-3.3-.3-9.7-.6-14.2-.7-4.6 0-8.3-.4-8.3-.7 0-.4-1.8-.3-4 .1s-4.3.4-4.5 0c-.3-.5-1.7-.5-3.3-.1-1.5.4-4.2.4-6 0-1.7-.4-3.4-.3-3.7.1-.2.4-2.3.4-4.5 0s-4.3-.4-4.5 0c-.3.4-2.1.4-4 0s-3.5-.4-3.5 0-1.8.4-4 0-4-.4-4 0-2 .4-4.5 0-4.5-.4-4.5-.1c0 .7-8.9.5-9.6-.2-.3-.3-1.8-.2-3.2.2-1.5.5-3.6.5-4.7.1s-3.1-.4-4.5 0-3.5.4-4.6 0c-1.1-.5-2.6-.5-3.3-.1-.7.5-3 .5-5.2.1-2.1-.4-3.9-.4-3.9 0s-2 .4-4.5 0-4.5-.4-4.5-.1c0 .7-8.9.5-9.6-.2-.3-.3-1.8-.2-3.2.2-1.5.5-3.6.5-4.7.1s-3.1-.4-4.5 0-3.4.4-4.4 0c-1.1-.3-3.9-.3-6.3 0-2.4.4-4.6.4-4.8 0-.3-.4-2.3-.4-4.5 0s-4.3.4-4.5-.1c-.3-.4-1.8-.4-3.4.1-1.6.4-3.2.6-3.5.3-.7-.7-14.2-.6-15.5.1-.5.4-1.2.2-1.5-.3-.3-.5-2.1-.5-4.1-.1-1.9.4-3.7.4-4 0-.3-.4-2.1-.4-4 0s-3.7.4-4 0c-.3-.4-2.1-.4-4 0s-3.7.4-4 0c-.3-.4-2.1-.4-4 0s-3.7.4-4 0c-.3-.4-2.1-.4-4 0s-3.7.4-4 0c-.3-.4-2.1-.4-4 0s-3.7.4-4 0c-.3-.4-2.1-.4-4 0s-3.7.4-4 0c-.3-.4-2.1-.4-4 0s-3.7.4-4 0c-.3-.4-2.1-.4-4 0s-3.7.4-4 0c-.3-.4-2.1-.4-4 0s-3.7.4-4 0c-.3-.4-2.1-.4-4 0s-3.7.4-4 0c-.3-.4-2.1-.4-4 0s-3.7.4-4 0c-.3-.4-2.1-.4-4 0s-3.7.4-4 0c-.3-.4-2.1-.4-4 0s-3.7.4-4 0c-.3-.4-2.1-.4-4 0s-3.7.4-4 0c-.3-.4-2.1-.4-4 0s-3.7.4-4 0c-.3-.4-2.1-.4-4 0s-3.7.4-4 0c-.3-.4-2.1-.4-4 0s-3.7.4-4 0c-.3-.4-2.1-.4-4 0s-3.7.4-4 0c-.3-.4-2.1-.4-4 0s-3.7.4-4 0c-.3-.4-2.1-.4-4 0s-3.7.4-4 0c-.3-.4-2.1-.4-4 0s-3.7.4-4 0c-.3-.4-2.1-.4-4 0s-3.7.4-4 0c-.3-.4-2.1-.4-4 0s-3.7.4-4 0c-.3-.4-2.1-.4-4 0s-3.7.4-4 0c-.3-.4-2.1-.4-4 0s-3.7.4-4 0c-.3-.4-2.1-.4-4 0s-3.7.4-4 0c-.3-.4-2.1-.4-4 0s-3.7.4-4 0c-.3-.4-2.1-.4-4 0s-3.7.4-4 0c-.3-.4-2.1-.4-4 0s-3.7.4-4 0c-.3-.4-2.1-.4-4 0s-3.7.4-4 0c-.3-.4-2.1-.4-4 0s-3.7.4-4 0c-.3-.4-2.1-.4-4 0s-3.7.4-4 0c-.3-.4-2.1-.4-4 0s-3.7.4-4 0c-.3-.4-2.1-.4-4 0s-3.7.4-4 0c-.3-.4-2.1-.4-4 0s-3.7.4-4 0c-.3-.4-2.1-.4-4 0s-3.7.4-4 0c-.3-.4-2.1-.4-4 0s-3.7.4-4 0c-.3-.4-2.1-.4-4 0s-3.7.4-4 0c-.3-.4-2.1-.4-4 0s-3.7.4-4 0c-.3-.4-2.1-.4-4 0s-3.7.4-4 0c-.3-.4-2.1-.4-4 0s-3.7.4-4 0c-.3-.4-2.1-.4-4 0s-3.7.4-4 0c-.3-.4-2.1-.4-4 0s-3.7.4-4 0c-.3-.4-2.1-.4-4 0s-3.7.4-4 0c-.3-.4-2-.4-3.9 0s-3.8.4-4.3-.1-1.2-.7-1.4-.4z"/></svg>