<svg width="33" height="35" fill="none" xmlns="http://www.w3.org/2000/svg"><g clip-path="url(#a)" fill="#fff"><path d="M9.34 2.693a.618.618 0 0 1 .264-.834 14.97 14.97 0 0 1 14.225.354.619.619 0 0 1 .225.848l-7.12 12.22a.618.618 0 0 1-.535.308h-.016a.62.62 0 0 1-.535-.334L9.34 2.693Zm6.677 16.155L9.507 6.284a.62.62 0 0 0-.833-.266 14.806 14.806 0 1 0 13.62 26.294.62.62 0 0 0 .264-.834l-6.541-12.63Zm7.63 11.874.05.099a.629.629 0 0 0 .359.31c.063.02.13.03.198.024a.786.786 0 0 0 .285-.062 6.87 6.87 0 0 0 .656-.371c.63-.366 1.23-.78 1.796-1.239h-3.988l.644 1.239Zm-1.288-2.477h5.982c.385-.387.74-.8 1.066-1.239h-7.692l.644 1.239Zm-1.276-2.478h9.203c.254-.397.481-.811.681-1.238H20.44l.644 1.238Zm-1.288-2.477h11.717c.165-.404.305-.818.421-1.239H19.151l.644 1.239Zm-1.289-2.477h13.737c.074-.409.136-.818.173-1.239H17.875l.631 1.239Zm6.64-15.657a.576.576 0 0 0-.471-.062.594.594 0 0 0-.384.285l-.335.57h2.391c-.386-.285-.787-.55-1.201-.793Zm2.7 2.032h-4.608l-.718 1.238h6.503c-.367-.436-.76-.85-1.177-1.238Zm2.105 2.477H21.79l-.719 1.239h9.637c-.223-.43-.476-.844-.756-1.239Zm1.35 2.477H20.353l-.718 1.239h12.15a11.64 11.64 0 0 0-.482-1.239Zm.83 2.478H18.904l-.719 1.238h14.17c-.049-.417-.123-.83-.222-1.239Zm.347 2.477H17.466l-.297.508a.598.598 0 0 0-.013.594l.075.136h15.272c.013-.123.013-.26.013-.384 0-.284-.013-.57-.038-.854Z"/><path d="M9.055 5.407a.844.844 0 0 0-1.178-.346 15.708 15.708 0 0 0 14.64 27.74.844.844 0 0 0 .378-1.168l-6.92-13.113-6.92-13.113Z"/></g><defs><clipPath id="a"><path fill="#fff" transform="translate(-.012 -.32)" d="M0 0h32.745v34.835H0z"/></clipPath></defs></svg>